<mxfile host="app.diagrams.net" agent="Mozilla/5.0 (Windows NT 10.0; Win64; x64) AppleWebKit/537.36 (KHTML, like Gecko) Chrome/131.0.0.0 Safari/537.36" version="25.0.3">
  <diagram name="Page-1" id="AfaI5W7omE8ki0rTSw7X">
    <mxGraphModel dx="3273" dy="2300" grid="1" gridSize="10" guides="1" tooltips="1" connect="1" arrows="1" fold="1" page="1" pageScale="1" pageWidth="827" pageHeight="1169" math="0" shadow="0">
      <root>
        <mxCell id="0" />
        <mxCell id="1" parent="0" />
        <mxCell id="FnL3gQ-T26NwA4hij09D-54" value="" style="rounded=0;whiteSpace=wrap;html=1;" vertex="1" parent="1">
          <mxGeometry x="-1710" y="-250" width="2860" height="940" as="geometry" />
        </mxCell>
        <mxCell id="FnL3gQ-T26NwA4hij09D-1" style="edgeStyle=orthogonalEdgeStyle;rounded=0;orthogonalLoop=1;jettySize=auto;html=1;entryX=0;entryY=0.5;entryDx=0;entryDy=0;" edge="1" parent="1" source="FnL3gQ-T26NwA4hij09D-2" target="FnL3gQ-T26NwA4hij09D-24">
          <mxGeometry relative="1" as="geometry" />
        </mxCell>
        <mxCell id="FnL3gQ-T26NwA4hij09D-2" value="Vaktsineerimisandmete valideerimine&amp;nbsp;" style="rounded=1;whiteSpace=wrap;html=1;absoluteArcSize=1;arcSize=14;strokeWidth=2;" vertex="1" parent="1">
          <mxGeometry x="-460" y="90" width="150" height="100" as="geometry" />
        </mxCell>
        <mxCell id="FnL3gQ-T26NwA4hij09D-3" style="edgeStyle=orthogonalEdgeStyle;rounded=0;orthogonalLoop=1;jettySize=auto;html=1;entryX=0;entryY=0.5;entryDx=0;entryDy=0;" edge="1" parent="1" source="FnL3gQ-T26NwA4hij09D-5" target="FnL3gQ-T26NwA4hij09D-7">
          <mxGeometry relative="1" as="geometry">
            <mxPoint x="330" y="150" as="targetPoint" />
          </mxGeometry>
        </mxCell>
        <mxCell id="FnL3gQ-T26NwA4hij09D-4" style="edgeStyle=orthogonalEdgeStyle;rounded=0;orthogonalLoop=1;jettySize=auto;html=1;entryX=0;entryY=0.5;entryDx=0;entryDy=0;" edge="1" parent="1" source="FnL3gQ-T26NwA4hij09D-5" target="FnL3gQ-T26NwA4hij09D-22">
          <mxGeometry relative="1" as="geometry" />
        </mxCell>
        <mxCell id="FnL3gQ-T26NwA4hij09D-5" value="Vaktsineerimisandmed TIS andmelaos" style="rounded=1;whiteSpace=wrap;html=1;absoluteArcSize=1;arcSize=14;strokeWidth=2;" vertex="1" parent="1">
          <mxGeometry x="80" y="90" width="150" height="100" as="geometry" />
        </mxCell>
        <mxCell id="FnL3gQ-T26NwA4hij09D-6" style="edgeStyle=orthogonalEdgeStyle;rounded=0;orthogonalLoop=1;jettySize=auto;html=1;" edge="1" parent="1" source="FnL3gQ-T26NwA4hij09D-7" target="FnL3gQ-T26NwA4hij09D-9">
          <mxGeometry relative="1" as="geometry" />
        </mxCell>
        <mxCell id="FnL3gQ-T26NwA4hij09D-7" value="Vaktsineerimisandmed analüütikas" style="rounded=1;whiteSpace=wrap;html=1;absoluteArcSize=1;arcSize=14;strokeWidth=2;" vertex="1" parent="1">
          <mxGeometry x="360" y="-5" width="150" height="100" as="geometry" />
        </mxCell>
        <mxCell id="FnL3gQ-T26NwA4hij09D-8" style="edgeStyle=orthogonalEdgeStyle;rounded=0;orthogonalLoop=1;jettySize=auto;html=1;entryX=0;entryY=0.5;entryDx=0;entryDy=0;" edge="1" parent="1" source="FnL3gQ-T26NwA4hij09D-9" target="FnL3gQ-T26NwA4hij09D-10">
          <mxGeometry relative="1" as="geometry" />
        </mxCell>
        <mxCell id="FnL3gQ-T26NwA4hij09D-9" value="Analüütikas kasutatud andmestike uuendamine või hävitamine" style="rounded=1;whiteSpace=wrap;html=1;absoluteArcSize=1;arcSize=14;strokeWidth=2;" vertex="1" parent="1">
          <mxGeometry x="600" y="100" width="150" height="100" as="geometry" />
        </mxCell>
        <mxCell id="FnL3gQ-T26NwA4hij09D-10" value="Analüütika raport aegunud või vaktsineerimisandmeid ei vajata" style="shape=ellipse;html=1;dashed=0;whiteSpace=wrap;aspect=fixed;strokeWidth=5;perimeter=ellipsePerimeter;labelPosition=right;verticalLabelPosition=bottom;align=left;verticalAlign=top;" vertex="1" parent="1">
          <mxGeometry x="880" y="95" width="110" height="110" as="geometry" />
        </mxCell>
        <mxCell id="FnL3gQ-T26NwA4hij09D-11" style="edgeStyle=orthogonalEdgeStyle;rounded=0;orthogonalLoop=1;jettySize=auto;html=1;entryX=0;entryY=0.5;entryDx=0;entryDy=0;" edge="1" parent="1" source="FnL3gQ-T26NwA4hij09D-12" target="FnL3gQ-T26NwA4hij09D-18">
          <mxGeometry relative="1" as="geometry" />
        </mxCell>
        <mxCell id="FnL3gQ-T26NwA4hij09D-12" value="Vaktsineerimise andmekoosseis" style="rounded=1;whiteSpace=wrap;html=1;absoluteArcSize=1;arcSize=14;strokeWidth=2;" vertex="1" parent="1">
          <mxGeometry x="-1470" y="100" width="150" height="100" as="geometry" />
        </mxCell>
        <mxCell id="FnL3gQ-T26NwA4hij09D-13" style="edgeStyle=orthogonalEdgeStyle;rounded=0;orthogonalLoop=1;jettySize=auto;html=1;" edge="1" parent="1" source="FnL3gQ-T26NwA4hij09D-14">
          <mxGeometry relative="1" as="geometry">
            <mxPoint x="-720" y="145" as="targetPoint" />
          </mxGeometry>
        </mxCell>
        <mxCell id="FnL3gQ-T26NwA4hij09D-14" value="Vaktsineerimise teenuse arendus TTO infosüsteemis" style="rounded=1;whiteSpace=wrap;html=1;absoluteArcSize=1;arcSize=14;strokeWidth=2;" vertex="1" parent="1">
          <mxGeometry x="-960" y="95" width="150" height="100" as="geometry" />
        </mxCell>
        <mxCell id="FnL3gQ-T26NwA4hij09D-15" style="edgeStyle=orthogonalEdgeStyle;rounded=0;orthogonalLoop=1;jettySize=auto;html=1;entryX=0;entryY=0.5;entryDx=0;entryDy=0;" edge="1" parent="1" source="FnL3gQ-T26NwA4hij09D-16" target="FnL3gQ-T26NwA4hij09D-12">
          <mxGeometry relative="1" as="geometry" />
        </mxCell>
        <mxCell id="FnL3gQ-T26NwA4hij09D-16" value="Vaktsineerimise teenuse väljatöötamine" style="strokeWidth=2;html=1;shape=mxgraph.flowchart.start_2;whiteSpace=wrap;labelPosition=center;verticalLabelPosition=bottom;align=center;verticalAlign=top;" vertex="1" parent="1">
          <mxGeometry x="-1670" y="100" width="100" height="100" as="geometry" />
        </mxCell>
        <mxCell id="FnL3gQ-T26NwA4hij09D-17" style="edgeStyle=orthogonalEdgeStyle;rounded=0;orthogonalLoop=1;jettySize=auto;html=1;" edge="1" parent="1" source="FnL3gQ-T26NwA4hij09D-18">
          <mxGeometry relative="1" as="geometry">
            <mxPoint x="-970" y="150" as="targetPoint" />
          </mxGeometry>
        </mxCell>
        <mxCell id="FnL3gQ-T26NwA4hij09D-18" value="Vaktsineerimise andmevahetus reeglid" style="rounded=1;whiteSpace=wrap;html=1;absoluteArcSize=1;arcSize=14;strokeWidth=2;" vertex="1" parent="1">
          <mxGeometry x="-1220" y="100" width="150" height="100" as="geometry" />
        </mxCell>
        <mxCell id="FnL3gQ-T26NwA4hij09D-19" style="edgeStyle=orthogonalEdgeStyle;rounded=0;orthogonalLoop=1;jettySize=auto;html=1;entryX=0;entryY=0.5;entryDx=0;entryDy=0;" edge="1" parent="1" source="FnL3gQ-T26NwA4hij09D-20" target="FnL3gQ-T26NwA4hij09D-2">
          <mxGeometry relative="1" as="geometry" />
        </mxCell>
        <mxCell id="FnL3gQ-T26NwA4hij09D-20" value="Vaktsineerimisandmete sisestamine" style="rounded=1;whiteSpace=wrap;html=1;absoluteArcSize=1;arcSize=14;strokeWidth=2;" vertex="1" parent="1">
          <mxGeometry x="-710" y="90" width="150" height="100" as="geometry" />
        </mxCell>
        <mxCell id="FnL3gQ-T26NwA4hij09D-21" style="edgeStyle=orthogonalEdgeStyle;rounded=0;orthogonalLoop=1;jettySize=auto;html=1;entryX=0.5;entryY=1;entryDx=0;entryDy=0;exitX=0.5;exitY=1;exitDx=0;exitDy=0;" edge="1" parent="1" source="FnL3gQ-T26NwA4hij09D-22" target="FnL3gQ-T26NwA4hij09D-10">
          <mxGeometry relative="1" as="geometry">
            <Array as="points">
              <mxPoint x="435" y="270" />
              <mxPoint x="935" y="270" />
            </Array>
          </mxGeometry>
        </mxCell>
        <mxCell id="FnL3gQ-T26NwA4hij09D-22" value="Vaktsineerimisandmed teistes teenustes" style="rounded=1;whiteSpace=wrap;html=1;absoluteArcSize=1;arcSize=14;strokeWidth=2;" vertex="1" parent="1">
          <mxGeometry x="360" y="140" width="150" height="100" as="geometry" />
        </mxCell>
        <mxCell id="FnL3gQ-T26NwA4hij09D-23" style="edgeStyle=orthogonalEdgeStyle;rounded=0;orthogonalLoop=1;jettySize=auto;html=1;entryX=0;entryY=0.5;entryDx=0;entryDy=0;" edge="1" parent="1" source="FnL3gQ-T26NwA4hij09D-24" target="FnL3gQ-T26NwA4hij09D-5">
          <mxGeometry relative="1" as="geometry" />
        </mxCell>
        <mxCell id="FnL3gQ-T26NwA4hij09D-24" value="Vaktsineerimisandmed TIS andmebaas" style="rounded=1;whiteSpace=wrap;html=1;absoluteArcSize=1;arcSize=14;strokeWidth=2;" vertex="1" parent="1">
          <mxGeometry x="-180" y="90" width="150" height="100" as="geometry" />
        </mxCell>
        <mxCell id="FnL3gQ-T26NwA4hij09D-25" style="edgeStyle=orthogonalEdgeStyle;rounded=0;orthogonalLoop=1;jettySize=auto;html=1;entryX=0.5;entryY=1;entryDx=0;entryDy=0;" edge="1" parent="1" target="FnL3gQ-T26NwA4hij09D-24">
          <mxGeometry relative="1" as="geometry">
            <mxPoint x="-105" y="550" as="sourcePoint" />
          </mxGeometry>
        </mxCell>
        <mxCell id="FnL3gQ-T26NwA4hij09D-26" value="mõistesüsteemide ühildamine ning andmeelemntide vastendamine" style="edgeLabel;html=1;align=center;verticalAlign=middle;resizable=0;points=[];" vertex="1" connectable="0" parent="FnL3gQ-T26NwA4hij09D-25">
          <mxGeometry x="0.1739" y="-4" relative="1" as="geometry">
            <mxPoint as="offset" />
          </mxGeometry>
        </mxCell>
        <mxCell id="FnL3gQ-T26NwA4hij09D-27" style="edgeStyle=orthogonalEdgeStyle;rounded=0;orthogonalLoop=1;jettySize=auto;html=1;entryX=0.5;entryY=1;entryDx=0;entryDy=0;exitX=0.041;exitY=0.1;exitDx=0;exitDy=0;exitPerimeter=0;" edge="1" parent="1" source="FnL3gQ-T26NwA4hij09D-34" target="FnL3gQ-T26NwA4hij09D-12">
          <mxGeometry relative="1" as="geometry" />
        </mxCell>
        <mxCell id="FnL3gQ-T26NwA4hij09D-28" style="edgeStyle=orthogonalEdgeStyle;rounded=0;orthogonalLoop=1;jettySize=auto;html=1;entryX=0.5;entryY=1;entryDx=0;entryDy=0;exitX=0.26;exitY=0;exitDx=0;exitDy=0;exitPerimeter=0;" edge="1" parent="1" source="FnL3gQ-T26NwA4hij09D-34" target="FnL3gQ-T26NwA4hij09D-14">
          <mxGeometry relative="1" as="geometry" />
        </mxCell>
        <mxCell id="FnL3gQ-T26NwA4hij09D-29" value="läbipaistev andmekoosseis koos kontekstiga;&amp;nbsp;&lt;div&gt;automaatselt genereeritud andmebaasistruktuur&lt;/div&gt;" style="edgeLabel;html=1;align=center;verticalAlign=middle;resizable=0;points=[];" vertex="1" connectable="0" parent="FnL3gQ-T26NwA4hij09D-28">
          <mxGeometry x="0.0924" relative="1" as="geometry">
            <mxPoint as="offset" />
          </mxGeometry>
        </mxCell>
        <mxCell id="FnL3gQ-T26NwA4hij09D-30" style="edgeStyle=orthogonalEdgeStyle;rounded=0;orthogonalLoop=1;jettySize=auto;html=1;entryX=0.5;entryY=1;entryDx=0;entryDy=0;exitX=0.367;exitY=0;exitDx=0;exitDy=0;exitPerimeter=0;" edge="1" parent="1" source="FnL3gQ-T26NwA4hij09D-34" target="FnL3gQ-T26NwA4hij09D-20">
          <mxGeometry relative="1" as="geometry" />
        </mxCell>
        <mxCell id="FnL3gQ-T26NwA4hij09D-31" value="kasutajaliideses on selgem, mida tuleb sisestada" style="edgeLabel;html=1;align=center;verticalAlign=middle;resizable=0;points=[];" vertex="1" connectable="0" parent="FnL3gQ-T26NwA4hij09D-30">
          <mxGeometry x="0.0327" y="1" relative="1" as="geometry">
            <mxPoint y="-99" as="offset" />
          </mxGeometry>
        </mxCell>
        <mxCell id="FnL3gQ-T26NwA4hij09D-32" style="edgeStyle=orthogonalEdgeStyle;rounded=0;orthogonalLoop=1;jettySize=auto;html=1;entryX=0.5;entryY=1;entryDx=0;entryDy=0;exitX=0.474;exitY=-0.01;exitDx=0;exitDy=0;exitPerimeter=0;" edge="1" parent="1" source="FnL3gQ-T26NwA4hij09D-34" target="FnL3gQ-T26NwA4hij09D-2">
          <mxGeometry relative="1" as="geometry" />
        </mxCell>
        <mxCell id="FnL3gQ-T26NwA4hij09D-33" value="kvaliteedireeglid" style="edgeLabel;html=1;align=center;verticalAlign=middle;resizable=0;points=[];" vertex="1" connectable="0" parent="FnL3gQ-T26NwA4hij09D-32">
          <mxGeometry x="0.0152" y="-2" relative="1" as="geometry">
            <mxPoint as="offset" />
          </mxGeometry>
        </mxCell>
        <mxCell id="FnL3gQ-T26NwA4hij09D-34" value="Metaandmete haldus" style="rounded=1;whiteSpace=wrap;html=1;absoluteArcSize=1;arcSize=14;strokeWidth=2;" vertex="1" parent="1">
          <mxGeometry x="-1490" y="560" width="2330" height="100" as="geometry" />
        </mxCell>
        <mxCell id="FnL3gQ-T26NwA4hij09D-35" style="edgeStyle=orthogonalEdgeStyle;rounded=0;orthogonalLoop=1;jettySize=auto;html=1;entryX=0.5;entryY=1;entryDx=0;entryDy=0;exitX=0.706;exitY=0.03;exitDx=0;exitDy=0;exitPerimeter=0;" edge="1" parent="1" source="FnL3gQ-T26NwA4hij09D-34" target="FnL3gQ-T26NwA4hij09D-5">
          <mxGeometry relative="1" as="geometry">
            <mxPoint x="-405" y="350" as="sourcePoint" />
            <mxPoint x="-95" y="200" as="targetPoint" />
          </mxGeometry>
        </mxCell>
        <mxCell id="FnL3gQ-T26NwA4hij09D-36" value="mõistesüsteemide ühildamine ning andmeelemntide vastendamine" style="edgeLabel;html=1;align=center;verticalAlign=middle;resizable=0;points=[];" vertex="1" connectable="0" parent="FnL3gQ-T26NwA4hij09D-35">
          <mxGeometry x="0.1739" y="-4" relative="1" as="geometry">
            <mxPoint x="-4" y="56" as="offset" />
          </mxGeometry>
        </mxCell>
        <mxCell id="FnL3gQ-T26NwA4hij09D-37" style="edgeStyle=orthogonalEdgeStyle;rounded=0;orthogonalLoop=1;jettySize=auto;html=1;entryX=0.333;entryY=0.97;entryDx=0;entryDy=0;entryPerimeter=0;" edge="1" parent="1" target="FnL3gQ-T26NwA4hij09D-22">
          <mxGeometry relative="1" as="geometry">
            <Array as="points">
              <mxPoint x="422" y="560" />
              <mxPoint x="410" y="560" />
            </Array>
            <mxPoint x="420" y="560" as="sourcePoint" />
            <mxPoint x="140" y="310" as="targetPoint" />
          </mxGeometry>
        </mxCell>
        <mxCell id="FnL3gQ-T26NwA4hij09D-38" value="kontekst andmetele ja analüüsile" style="edgeLabel;html=1;align=center;verticalAlign=middle;resizable=0;points=[];" vertex="1" connectable="0" parent="FnL3gQ-T26NwA4hij09D-37">
          <mxGeometry x="0.0566" y="-4" relative="1" as="geometry">
            <mxPoint as="offset" />
          </mxGeometry>
        </mxCell>
        <mxCell id="FnL3gQ-T26NwA4hij09D-39" style="edgeStyle=orthogonalEdgeStyle;rounded=0;orthogonalLoop=1;jettySize=auto;html=1;entryX=0.148;entryY=-0.01;entryDx=0;entryDy=0;entryPerimeter=0;" edge="1" parent="1" source="FnL3gQ-T26NwA4hij09D-18" target="FnL3gQ-T26NwA4hij09D-34">
          <mxGeometry relative="1" as="geometry" />
        </mxCell>
        <mxCell id="FnL3gQ-T26NwA4hij09D-40" value="lisandunud elemendid,&amp;nbsp;&lt;div&gt;täiendatud elemendid&lt;/div&gt;" style="edgeLabel;html=1;align=center;verticalAlign=middle;resizable=0;points=[];" vertex="1" connectable="0" parent="FnL3gQ-T26NwA4hij09D-39">
          <mxGeometry x="-0.1871" relative="1" as="geometry">
            <mxPoint as="offset" />
          </mxGeometry>
        </mxCell>
        <mxCell id="FnL3gQ-T26NwA4hij09D-41" style="edgeStyle=orthogonalEdgeStyle;rounded=0;orthogonalLoop=1;jettySize=auto;html=1;entryX=0.051;entryY=0;entryDx=0;entryDy=0;entryPerimeter=0;exitX=0.653;exitY=1.03;exitDx=0;exitDy=0;exitPerimeter=0;" edge="1" parent="1" source="FnL3gQ-T26NwA4hij09D-12" target="FnL3gQ-T26NwA4hij09D-34">
          <mxGeometry relative="1" as="geometry" />
        </mxCell>
        <mxCell id="FnL3gQ-T26NwA4hij09D-42" style="edgeStyle=orthogonalEdgeStyle;rounded=0;orthogonalLoop=1;jettySize=auto;html=1;entryX=0.693;entryY=1.01;entryDx=0;entryDy=0;entryPerimeter=0;" edge="1" parent="1" target="FnL3gQ-T26NwA4hij09D-18">
          <mxGeometry relative="1" as="geometry">
            <mxPoint x="-1117" y="559" as="sourcePoint" />
          </mxGeometry>
        </mxCell>
        <mxCell id="FnL3gQ-T26NwA4hij09D-43" value="lisandunud elemendid,&amp;nbsp;&lt;div&gt;täiendatud elemendid&lt;/div&gt;" style="edgeLabel;html=1;align=center;verticalAlign=middle;resizable=0;points=[];" vertex="1" connectable="0" parent="1">
          <mxGeometry x="-1380" y="340.00444444444446" as="geometry" />
        </mxCell>
        <mxCell id="FnL3gQ-T26NwA4hij09D-44" style="edgeStyle=orthogonalEdgeStyle;rounded=0;orthogonalLoop=1;jettySize=auto;html=1;" edge="1" parent="1" source="FnL3gQ-T26NwA4hij09D-46">
          <mxGeometry relative="1" as="geometry">
            <mxPoint x="-890" y="90" as="targetPoint" />
          </mxGeometry>
        </mxCell>
        <mxCell id="FnL3gQ-T26NwA4hij09D-45" value="relation" style="edgeLabel;html=1;align=center;verticalAlign=middle;resizable=0;points=[];" vertex="1" connectable="0" parent="FnL3gQ-T26NwA4hij09D-44">
          <mxGeometry x="-0.2707" y="1" relative="1" as="geometry">
            <mxPoint as="offset" />
          </mxGeometry>
        </mxCell>
        <mxCell id="FnL3gQ-T26NwA4hij09D-46" value="UC4" style="shape=document;whiteSpace=wrap;html=1;boundedLbl=1;" vertex="1" parent="1">
          <mxGeometry x="-950" y="-80" width="120" height="80" as="geometry" />
        </mxCell>
        <mxCell id="FnL3gQ-T26NwA4hij09D-47" style="edgeStyle=orthogonalEdgeStyle;rounded=0;orthogonalLoop=1;jettySize=auto;html=1;entryX=0.5;entryY=0;entryDx=0;entryDy=0;" edge="1" parent="1" source="FnL3gQ-T26NwA4hij09D-49" target="FnL3gQ-T26NwA4hij09D-7">
          <mxGeometry relative="1" as="geometry" />
        </mxCell>
        <mxCell id="FnL3gQ-T26NwA4hij09D-48" value="relation" style="edgeLabel;html=1;align=center;verticalAlign=middle;resizable=0;points=[];" vertex="1" connectable="0" parent="FnL3gQ-T26NwA4hij09D-47">
          <mxGeometry x="-0.392" y="3" relative="1" as="geometry">
            <mxPoint as="offset" />
          </mxGeometry>
        </mxCell>
        <mxCell id="FnL3gQ-T26NwA4hij09D-49" value="UC1" style="shape=document;whiteSpace=wrap;html=1;boundedLbl=1;" vertex="1" parent="1">
          <mxGeometry x="375" y="-210" width="120" height="80" as="geometry" />
        </mxCell>
        <mxCell id="FnL3gQ-T26NwA4hij09D-50" value="UC2" style="shape=document;whiteSpace=wrap;html=1;boundedLbl=1;" vertex="1" parent="1">
          <mxGeometry x="550" y="300" width="120" height="80" as="geometry" />
        </mxCell>
        <mxCell id="FnL3gQ-T26NwA4hij09D-51" style="edgeStyle=orthogonalEdgeStyle;rounded=0;orthogonalLoop=1;jettySize=auto;html=1;entryX=0.42;entryY=1.01;entryDx=0;entryDy=0;entryPerimeter=0;" edge="1" parent="1" source="FnL3gQ-T26NwA4hij09D-50" target="FnL3gQ-T26NwA4hij09D-22">
          <mxGeometry relative="1" as="geometry" />
        </mxCell>
        <mxCell id="FnL3gQ-T26NwA4hij09D-52" value="relation" style="edgeLabel;html=1;align=center;verticalAlign=middle;resizable=0;points=[];" vertex="1" connectable="0" parent="FnL3gQ-T26NwA4hij09D-51">
          <mxGeometry x="-0.4602" y="-2" relative="1" as="geometry">
            <mxPoint as="offset" />
          </mxGeometry>
        </mxCell>
        <mxCell id="FnL3gQ-T26NwA4hij09D-53" value="UC3" style="shape=document;whiteSpace=wrap;html=1;boundedLbl=1;" vertex="1" parent="1">
          <mxGeometry x="-1280" y="570" width="120" height="80" as="geometry" />
        </mxCell>
      </root>
    </mxGraphModel>
  </diagram>
</mxfile>
